<svg width="15" height="15" xmlns="http://www.w3.org/2000/svg">

 <g>
  <title>Layer 1</title>
  <path id="svg_1" fill="#ffffff" d="m13.9131,2.72817l-1.8183,-1.83689c-0.8046,-0.81042 -2.11175,-0.81537 -2.91799,-0.00866l-2.0176,2.00994c-0.8076,0.80629 -0.81103,2.11776 -0.0087,2.92818l1.15301,-1.13177c-0.11674,-0.36061 0.02689,-0.77367 0.31241,-1.05951l1.28356,-1.27759c0.40661,-0.40563 1.05891,-0.40274 1.46001,0.00247l1.0918,1.10371c0.4015,0.40478 0.3998,1.05908 -0.0043,1.46513l-1.2836,1.27923c-0.2716,0.27055 -0.7173,0.41927 -1.0632,0.32385l-1.12926,1.13261c0.80359,0.8129 2.10936,0.81579 2.91796,0.0095l2.015,-2.00913c0.8102,-0.8067 0.8128,-2.11941 0.0092,-2.93107zm-7.38697,7.36363c0.09578,0.3523 -0.05756,0.8079 -0.3352,1.0859l-1.19866,1.1975c-0.41153,0.4093 -1.07632,0.4081 -1.48556,-0.0062l-1.11374,-1.1215c-0.40832,-0.4126 -0.40568,-1.0842 0.00527,-1.49277l1.1998,-1.19704c0.29228,-0.29162 0.7124,-0.43744 1.07907,-0.31394l1.15643,-1.17225c-0.81861,-0.8253 -2.15105,-0.82943 -2.97295,-0.00826l-1.94539,1.94096c-0.82294,0.8224 -0.82683,2.1587 -0.00869,2.9844l1.85166,1.8732c0.81778,0.8228 2.14907,0.8294 2.97294,0.0083l1.94538,-1.9414c0.82203,-0.8233 0.82591,-2.15704 0.00904,-2.9844l-1.1594,1.1475zm-0.26826,-0.52873c-0.27774,0.27882 -0.7236,0.27798 -0.99608,-0.00495c-0.27387,-0.28378 -0.27169,-0.73773 0.00434,-1.01819l3.32462,-3.37884c0.27604,-0.27882 0.72099,-0.27798 0.99438,0.00289c0.27535,0.28171 0.27363,0.7369 -0.00343,1.01901l-3.32383,3.38008z" clip-rule="evenodd" fill-rule="evenodd"/>
 </g>
</svg>